<svg xmlns="http://www.w3.org/2000/svg" xmlns:xlink="http://www.w3.org/1999/xlink" width="300" height="300" viewBox="0 0 300 300">
  <defs>
    <clipPath id="clip-path">
      <path id="Trazado_115" data-name="Trazado 115" d="M228.663,205.141a25.376,25.376,0,1,0,50.752,0Z" transform="translate(-228.663 -205.141)"/>
    </clipPath>
    <clipPath id="clip-path-2">
      <rect id="Rectángulo_11" data-name="Rectángulo 11" width="17.362" height="17.369"/>
    </clipPath>
    <clipPath id="clip-ico_ancianos">
      <rect width="300" height="300"/>
    </clipPath>
  </defs>
  <g id="ico_ancianos" clip-path="url(#clip-ico_ancianos)">
    <g id="Grupo_3942" data-name="Grupo 3942">
      <g id="Grupo_2888" data-name="Grupo 2888" transform="translate(73.059 41.732)">
        <path id="Trazado_108" data-name="Trazado 108" d="M262.776,217.085c0,10.681-5.134,19.337-11.465,19.337s-11.465-8.656-11.465-19.337,5.134-19.337,11.465-19.337,11.465,8.663,11.465,19.337" transform="translate(-108.21 -139.21)" fill="#d1a69b"/>
        <path id="Trazado_109" data-name="Trazado 109" d="M244.307,217.085c0,10.681-5.134,19.337-11.465,19.337s-11.458-8.656-11.458-19.337,5.127-19.337,11.458-19.337,11.465,8.663,11.465,19.337" transform="translate(-221.384 -139.21)" fill="#d1a69b"/>
        <path id="Trazado_110" data-name="Trazado 110" d="M354.628,264.1c0-42.417-23.487-74.567-65.9-74.567s-65.74,32.15-65.74,74.567c0,1.326.086,2.6.128,3.9-.043,1.241-.128,2.453-.128,3.715,0,42.41,19.087,67.736,65.818,67.736,47.957,0,65.818-26.2,65.818-68.606,0-1.119-.086-2.2-.121-3.294.036-1.162.121-2.289.121-3.451" transform="translate(-211.527 -189.538)" fill="#ffd3b6"/>
        <path id="Trazado_111" data-name="Trazado 111" d="M246.4,198.088c-5.234-1.768-14.781.085-19.7,5.241a3.516,3.516,0,0,0,1.369,5.747h.014a3.435,3.435,0,0,0,1.162.2,3.513,3.513,0,0,0,2.545-1.091c3.216-3.373,9.954-4.285,12.285-3.458a3.514,3.514,0,0,0,4.478-2.118,3.551,3.551,0,0,0-2.153-4.52" transform="translate(-194.782 -141.125)" fill="#e2dfdf"/>
        <path id="Trazado_112" data-name="Trazado 112" d="M257.553,203.318c-4.927-5.155-14.474-7-19.758-5.219a3.516,3.516,0,1,0,2.438,6.6c2.289-.813,9.02.107,12.228,3.465a3.5,3.5,0,0,0,2.553,1.105,3.612,3.612,0,0,0,1.155-.2h.014a3.434,3.434,0,0,0,1.255-.777,3.521,3.521,0,0,0,.114-4.97" transform="translate(-134.908 -141.115)" fill="#e2dfdf"/>
        <path id="Trazado_113" data-name="Trazado 113" d="M279.415,205.141a25.376,25.376,0,1,1-50.752,0" transform="translate(-176.763 -93.89)" fill="#9f1920"/>
        <g id="Grupo_23" data-name="Grupo 23" transform="translate(51.9 111.251)">
          <g id="Grupo_22" data-name="Grupo 22" clip-path="url(#clip-path)">
            <path id="Trazado_114" data-name="Trazado 114" d="M278.312,230.735a24.324,24.324,0,1,1-24.321-24.321,24.319,24.319,0,0,1,24.321,24.321" transform="translate(-222.533 -197.337)" fill="#f08082"/>
          </g>
        </g>
        <path id="Trazado_116" data-name="Trazado 116" d="M284.36,210.095c-7.152-3.109-17.911-5.519-20.613-6.3-1.091-.307-2.774,1.148-3.865,3.28-1.091-2.132-2.774-3.587-3.865-3.28-2.7.777-13.469,3.187-20.62,6.3s-10.5,14.232-4.813,18.275c8.021-10.674,17.918-6,26.253-10.638a8.393,8.393,0,0,0,3.044-2.788,8.31,8.31,0,0,0,3.052,2.788c8.328,4.635,18.239-.036,26.246,10.638,5.683-4.043,2.332-15.166-4.82-18.275" transform="translate(-182.599 -102.366)" fill="#e2dfdf"/>
        <path id="Trazado_117" data-name="Trazado 117" d="M240.214,206.391a16.424,16.424,0,0,0,10.011-3.373,4.637,4.637,0,0,1,.542,2.153c0,3.686-4.464,6.667-9.968,6.667s-9.975-2.98-9.975-6.667a4.725,4.725,0,0,1,.542-2.153,13.8,13.8,0,0,0,8.848,3.373" transform="translate(-163.516 -106.904)" fill="#b7968b"/>
        <path id="Trazado_118" data-name="Trazado 118" d="M240.65,206.664c0,2.988-3.13,5.412-6.995,5.412s-7-2.424-7-5.412,3.13-5.4,7-5.4,6.995,2.417,6.995,5.4" transform="translate(-189.078 -117.687)" fill="#d1a69b"/>
        <path id="Trazado_119" data-name="Trazado 119" d="M249.824,206.7c0,2.988-3.137,5.4-6.995,5.4s-7-2.417-7-5.4,3.137-5.412,7-5.412,6.995,2.424,6.995,5.412" transform="translate(-132.84 -117.497)" fill="#d1a69b"/>
        <path id="Trazado_120" data-name="Trazado 120" d="M240.65,208.744c0,5.134-3.13,9.3-6.995,9.3s-7-4.164-7-9.3,3.13-9.3,7-9.3,6.995,4.164,6.995,9.3" transform="translate(-189.078 -128.844)" fill="#333"/>
        <path id="Trazado_121" data-name="Trazado 121" d="M249.824,208.744c0,5.134-3.137,9.3-6.995,9.3s-7-4.164-7-9.3,3.137-9.3,7-9.3,6.995,4.164,6.995,9.3" transform="translate(-132.84 -128.844)" fill="#333"/>
        <g id="Grupo_25" data-name="Grupo 25" transform="translate(52.663 83.159)">
          <g id="Grupo_24" data-name="Grupo 24" clip-path="url(#clip-path-2)">
            <path id="Trazado_122" data-name="Trazado 122" d="M237.454,201.2a8.681,8.681,0,1,0,8.677,8.677,8.7,8.7,0,0,0-8.677-8.677" transform="translate(-228.77 -201.201)" fill="#fff"/>
          </g>
        </g>
        <g id="Grupo_27" data-name="Grupo 27" transform="translate(84.528 83.159)">
          <g id="Grupo_26" data-name="Grupo 26" clip-path="url(#clip-path-2)">
            <path id="Trazado_123" data-name="Trazado 123" d="M241.923,201.2a8.681,8.681,0,1,0,8.677,8.677,8.7,8.7,0,0,0-8.677-8.677" transform="translate(-233.239 -201.201)" fill="#fff"/>
          </g>
        </g>
        <path id="Trazado_124" data-name="Trazado 124" d="M270.067,201.079a9.543,9.543,0,0,0-9.034,6.581,9.466,9.466,0,0,0-13.8,0,9.536,9.536,0,1,0-2.132,9.54,9.9,9.9,0,0,0,.656-.791,9.357,9.357,0,0,0,1.775-7.758,8.563,8.563,0,0,1,13.191,0,9.451,9.451,0,0,0,1.775,7.758,9.975,9.975,0,0,0,.663.791,9.543,9.543,0,1,0,6.909-16.121M245.554,215.2a7.963,7.963,0,0,1-.756,1.012,8.666,8.666,0,1,1,1.775-7.751,8.419,8.419,0,0,1,.207,1.2,7.335,7.335,0,0,1,.093.97,8.582,8.582,0,0,1-1.319,4.571m24.513,4.107a8.617,8.617,0,0,1-6.6-3.1,8.065,8.065,0,0,1-.749-1.012,8.574,8.574,0,0,1-1.333-4.57,8.76,8.76,0,0,1,.1-.97,8.4,8.4,0,0,1,.207-1.2,8.668,8.668,0,1,1,8.371,10.852" transform="translate(-176.855 -118.79)" fill="#3b2b15"/>
        <path id="Trazado_125" data-name="Trazado 125" d="M227.981,232.18s21.226-37.369,17.6-39.237c-5.683-2.938-17.134,2.382-21.761,11.537-2.217,4.378-1.49,27.5-.385,28.549a18.747,18.747,0,0,1,4.549-.848" transform="translate(-215.31 -173.635)" fill="#e2dfdf"/>
        <path id="Trazado_126" data-name="Trazado 126" d="M256.767,232.18s-21.226-37.369-17.59-39.237c5.683-2.938,17.134,2.382,21.761,11.537,2.21,4.378,1.483,27.5.385,28.549a18.884,18.884,0,0,0-4.556-.848" transform="translate(-114.878 -173.635)" fill="#e2dfdf"/>
        <path id="Trazado_127" data-name="Trazado 127" d="M286.008,202.536c-29.105-19.351-56.963-.2-57.241-.007l-.649-.913c.292-.2,28.742-19.8,58.517-.007Z" transform="translate(-180.104 -169.73)" fill="#d1a69b"/>
        <path id="Trazado_128" data-name="Trazado 128" d="M286.008,203.772c-29.12-19.372-56.97-.2-57.241-.007l-.649-.906c.292-.207,28.742-19.815,58.517-.007Z" transform="translate(-180.104 -162.16)" fill="#d1a69b"/>
      </g>
      <path id="Trazado_3263" data-name="Trazado 3263" d="M139.209,0A139.209,139.209,0,1,1,0,139.209,139.209,139.209,0,0,1,139.209,0Z" transform="translate(11 11)" fill="none" stroke="#5f8aaf" stroke-width="3"/>
      <path id="Trazado_3709" data-name="Trazado 3709" d="M-47.71-4.212h-9.1L-58.6,0h-3.484l8.19-18.2h3.328L-42.354,0H-45.89Zm-1.118-2.652L-52.26-14.82l-3.406,7.956Zm16.354-7.176a5.8,5.8,0,0,1,4.212,1.534,6.051,6.051,0,0,1,1.586,4.55V0h-3.25V-7.54a3.9,3.9,0,0,0-.858-2.743,3.172,3.172,0,0,0-2.444-.923,3.752,3.752,0,0,0-2.834,1.079A4.3,4.3,0,0,0-37.1-7.02V0h-3.25V-13.884h3.094v1.794a5.081,5.081,0,0,1,2.028-1.456A7.3,7.3,0,0,1-32.474-14.04ZM-16.042.182a8.14,8.14,0,0,1-3.874-.91,6.682,6.682,0,0,1-2.678-2.535,7.084,7.084,0,0,1-.962-3.679,7.015,7.015,0,0,1,.962-3.666,6.732,6.732,0,0,1,2.665-2.522,8.119,8.119,0,0,1,3.887-.91,7.489,7.489,0,0,1,3.6.832,5.4,5.4,0,0,1,2.327,2.392l-2.5,1.456A3.964,3.964,0,0,0-14.1-10.8a4.088,4.088,0,0,0-1.963-.481A4.112,4.112,0,0,0-19.084-10.1a4.244,4.244,0,0,0-1.2,3.159A4.269,4.269,0,0,0-19.1-3.783,4.1,4.1,0,0,0-16.068-2.6,4.088,4.088,0,0,0-14.1-3.081a3.964,3.964,0,0,0,1.5-1.443l2.5,1.456A5.626,5.626,0,0,1-12.467-.663,7.339,7.339,0,0,1-16.042.182Zm8.736-14.066h3.25V0h-3.25Zm1.638-2.288a2.087,2.087,0,0,1-1.482-.559,1.826,1.826,0,0,1-.6-1.391,1.826,1.826,0,0,1,.6-1.391,2.087,2.087,0,0,1,1.482-.559,2.146,2.146,0,0,1,1.482.533,1.718,1.718,0,0,1,.6,1.339,1.961,1.961,0,0,1-.585,1.443A2.025,2.025,0,0,1-5.668-16.172ZM5.512-14.04a6.77,6.77,0,0,1,4.693,1.469A5.678,5.678,0,0,1,11.83-8.138V0H8.762V-1.69A3.781,3.781,0,0,1,7.059-.3,6.657,6.657,0,0,1,4.394.182a6.529,6.529,0,0,1-2.73-.533A4.218,4.218,0,0,1-.143-1.833,3.761,3.761,0,0,1-.78-3.978a3.676,3.676,0,0,1,1.391-3A6.908,6.908,0,0,1,4.992-8.112H8.58V-8.32a2.846,2.846,0,0,0-.871-2.236,3.768,3.768,0,0,0-2.587-.78,7.467,7.467,0,0,0-2.3.364A5.653,5.653,0,0,0,.91-9.958L-.364-12.324A7.889,7.889,0,0,1,2.262-13.6,11.684,11.684,0,0,1,5.512-14.04ZM5.07-2.184a4.2,4.2,0,0,0,2.171-.559,3.042,3.042,0,0,0,1.339-1.6V-5.954H5.226q-2.808,0-2.808,1.846a1.657,1.657,0,0,0,.7,1.4A3.218,3.218,0,0,0,5.07-2.184Zm18.8-11.856a5.8,5.8,0,0,1,4.212,1.534,6.051,6.051,0,0,1,1.586,4.55V0h-3.25V-7.54a3.9,3.9,0,0,0-.858-2.743,3.172,3.172,0,0,0-2.444-.923,3.752,3.752,0,0,0-2.834,1.079A4.3,4.3,0,0,0,19.24-7.02V0H15.99V-13.884h3.094v1.794a5.081,5.081,0,0,1,2.028-1.456A7.3,7.3,0,0,1,23.868-14.04ZM40.17.182a7.877,7.877,0,0,1-3.8-.91,6.635,6.635,0,0,1-2.639-2.535,7.159,7.159,0,0,1-.949-3.679,7.089,7.089,0,0,1,.949-3.666,6.662,6.662,0,0,1,2.639-2.522,7.877,7.877,0,0,1,3.8-.91,7.932,7.932,0,0,1,3.822.91,6.662,6.662,0,0,1,2.639,2.522,7.089,7.089,0,0,1,.949,3.666,7.159,7.159,0,0,1-.949,3.679A6.635,6.635,0,0,1,43.992-.728,7.932,7.932,0,0,1,40.17.182Zm0-2.782a3.971,3.971,0,0,0,2.964-1.2A4.306,4.306,0,0,0,44.3-6.942a4.306,4.306,0,0,0-1.17-3.146,3.971,3.971,0,0,0-2.964-1.2,3.928,3.928,0,0,0-2.951,1.2,4.333,4.333,0,0,0-1.157,3.146A4.333,4.333,0,0,0,37.219-3.8,3.928,3.928,0,0,0,40.17-2.6ZM54.99.182a12.431,12.431,0,0,1-3.3-.442,8.308,8.308,0,0,1-2.574-1.118l1.248-2.47a8.024,8.024,0,0,0,2.249,1A9.344,9.344,0,0,0,55.2-2.47Q58.11-2.47,58.11-4a1.025,1.025,0,0,0-.741-1.014,12.794,12.794,0,0,0-2.379-.546,19.3,19.3,0,0,1-2.8-.6,4.29,4.29,0,0,1-1.872-1.183A3.3,3.3,0,0,1,49.53-9.7a3.7,3.7,0,0,1,1.651-3.159A7.514,7.514,0,0,1,55.64-14.04a12.869,12.869,0,0,1,2.86.325,8.018,8.018,0,0,1,2.34.871l-1.248,2.47a7.7,7.7,0,0,0-3.978-1.04,4.409,4.409,0,0,0-2.171.429A1.28,1.28,0,0,0,52.7-9.854a1.13,1.13,0,0,0,.793,1.1,12.6,12.6,0,0,0,2.457.611,18.958,18.958,0,0,1,2.73.6A4.273,4.273,0,0,1,60.515-6.4a3.189,3.189,0,0,1,.767,2.288,3.62,3.62,0,0,1-1.69,3.12A7.969,7.969,0,0,1,54.99.182Z" transform="translate(150 233)" fill="#6a6a6a"/>
    </g>
  </g>
</svg>
